<svg xmlns="http://www.w3.org/2000/svg" xmlns:xlink="http://www.w3.org/1999/xlink" width="500" zoomAndPan="magnify" viewBox="0 0 375 374.999991" height="500" preserveAspectRatio="xMidYMid meet" version="1.0"><defs><clipPath id="735814597f"><path d="M 187.5 0 C 83.945312 0 0 83.945312 0 187.5 C 0 291.054688 83.945312 375 187.5 375 C 291.054688 375 375 291.054688 375 187.5 C 375 83.945312 291.054688 0 187.5 0 Z M 187.5 0 " clip-rule="nonzero"/></clipPath><clipPath id="b600df111a"><path d="M 148 303 L 220 303 L 220 330.238281 L 148 330.238281 Z M 148 303 " clip-rule="nonzero"/></clipPath><clipPath id="6cbeb8a99f"><path d="M 56 44.488281 L 274 44.488281 L 274 330 L 56 330 Z M 56 44.488281 " clip-rule="nonzero"/></clipPath></defs><g clip-path="url(#735814597f)"><rect x="-37.5" width="450" fill="#ff8210" y="-37.499999" height="449.999989" fill-opacity="1"/></g><path fill="#ff8210" d="M -47.933594 222.695312 C -30.789062 221.246094 -4.707031 215.089844 25.964844 205.1875 C 26.207031 203.132812 26.449219 201.203125 26.808594 199.148438 C -3.617188 211.34375 -29.941406 219.554688 -47.933594 222.695312 Z M -47.933594 222.695312 " fill-opacity="1" fill-rule="nonzero"/><path fill="#ff8210" d="M -31.148438 237.910156 C -17.382812 236.824219 2.296875 232.597656 25.359375 225.835938 C 25.238281 224.386719 25.238281 222.9375 25.121094 221.488281 C 2.660156 229.820312 -16.78125 235.496094 -31.148438 237.910156 Z M -31.148438 237.910156 " fill-opacity="1" fill-rule="nonzero"/><path fill="#ff8210" d="M -14.246094 253.125 C -3.257812 252.277344 11.355469 249.378906 28.5 244.914062 C 28.257812 243.824219 28.015625 242.859375 27.777344 241.773438 C 11.355469 247.328125 -3.015625 251.191406 -14.246094 253.125 Z M -14.246094 253.125 " fill-opacity="1" fill-rule="nonzero"/><path fill="#ff8210" d="M 2.660156 268.339844 C 11.234375 267.613281 22.101562 265.679688 34.660156 262.785156 C 34.296875 262.058594 34.054688 261.335938 33.691406 260.488281 C 21.738281 264.234375 11.234375 266.890625 2.660156 268.339844 Z M 2.660156 268.339844 " fill-opacity="1" fill-rule="nonzero"/><path fill="#ff8210" d="M 19.566406 283.550781 C 26.328125 282.949219 34.660156 281.621094 44.078125 279.6875 C 43.714844 279.085938 43.351562 278.601562 42.988281 277.996094 C 34.175781 280.535156 26.328125 282.34375 19.566406 283.550781 Z M 19.566406 283.550781 " fill-opacity="1" fill-rule="nonzero"/><path fill="#ff8210" d="M 36.46875 298.765625 C 42.386719 298.285156 49.269531 297.195312 57.117188 295.628906 C 56.632812 295.144531 56.273438 294.78125 55.789062 294.296875 C 48.664062 296.230469 42.144531 297.800781 36.46875 298.765625 Z M 36.46875 298.765625 " fill-opacity="1" fill-rule="nonzero"/><path fill="#ff8210" d="M 75.472656 310.601562 C 74.867188 310.238281 74.144531 309.753906 73.539062 309.273438 C 66.054688 311.324219 59.292969 312.894531 53.375 313.980469 C 59.53125 313.378906 67.019531 312.289062 75.472656 310.601562 Z M 75.472656 310.601562 " fill-opacity="1" fill-rule="nonzero"/><path fill="#ff8210" d="M 102.761719 323.398438 C 101.433594 322.917969 100.105469 322.554688 98.65625 322.070312 C 87.789062 325.332031 78.128906 327.746094 70.160156 329.074219 C 78.972656 328.46875 89.960938 326.417969 102.761719 323.398438 Z M 102.761719 323.398438 " fill-opacity="1" fill-rule="nonzero"/><path fill="#ff8210" d="M 191.027344 285.605469 C 207.449219 277.878906 223.027344 270.027344 237.152344 262.300781 C 238.964844 258.195312 240.414062 254.089844 241.742188 249.863281 C 223.386719 259.039062 202.378906 268.578125 179.675781 277.636719 C 139.589844 293.695312 102.519531 305.167969 75.472656 310.71875 C 82.835938 315.550781 90.6875 319.414062 98.777344 322.191406 C 124.132812 314.34375 156.492188 301.785156 191.027344 285.605469 Z M 191.027344 285.605469 " fill-opacity="1" fill-rule="nonzero"/><path fill="#ff8210" d="M 245.363281 232.597656 C 245.726562 229.457031 246.089844 226.316406 246.210938 223.296875 C 223.75 235.855469 194.769531 249.5 162.652344 262.300781 C 121.839844 278.601562 84.164062 290.3125 57.117188 295.628906 C 58.566406 297.074219 60.136719 298.644531 61.707031 300.09375 C 65.449219 303.476562 69.433594 306.496094 73.417969 309.273438 C 99.984375 301.90625 135.726562 288.382812 174.003906 270.390625 C 200.929688 257.832031 225.320312 244.792969 245.363281 232.597656 Z M 245.363281 232.597656 " fill-opacity="1" fill-rule="nonzero"/><path fill="#ff8210" d="M 245.726562 206.394531 C 245.484375 203.859375 245.121094 201.441406 244.761719 199.027344 C 220.972656 213.757812 185.835938 231.027344 145.867188 247.085938 C 106.988281 262.664062 70.882812 274.011719 44.078125 279.6875 C 47.578125 284.878906 51.441406 289.710938 55.910156 294.296875 C 82.59375 287.054688 118.578125 273.410156 157.21875 255.175781 C 192.234375 238.753906 223.265625 221.488281 245.726562 206.394531 Z M 245.726562 206.394531 " fill-opacity="1" fill-rule="nonzero"/><path fill="#ff8210" d="M 57.359375 139.980469 C 77.765625 129.839844 96.480469 119.574219 112.300781 109.917969 C 92.015625 114.140625 72.816406 124.285156 57.359375 139.980469 Z M 57.359375 139.980469 " fill-opacity="1" fill-rule="nonzero"/><path fill="#ff8210" d="M 217.953125 143.96875 C 216.625 142.519531 215.296875 141.070312 213.847656 139.621094 C 193.199219 156.402344 148.523438 180.070312 95.152344 201.441406 C 70.160156 211.464844 46.371094 219.675781 25.480469 225.835938 C 25.84375 231.148438 26.6875 236.582031 27.777344 241.773438 C 50.71875 234.046875 77.886719 223.058594 106.503906 209.652344 C 155.769531 186.46875 196.945312 161.71875 217.953125 143.96875 Z M 217.953125 143.96875 " fill-opacity="1" fill-rule="nonzero"/><path fill="#ff8210" d="M 180.402344 116.679688 C 178.226562 115.710938 176.054688 114.867188 173.882812 114.023438 C 151.179688 130.324219 110.003906 151.695312 61.464844 171.015625 C 51.082031 175.121094 40.816406 178.984375 31.035156 182.484375 C 29.226562 187.917969 27.777344 193.472656 26.808594 199.148438 C 41.421875 193.351562 56.875 186.589844 72.816406 179.105469 C 119.183594 157.371094 158.425781 134.1875 180.402344 116.679688 Z M 180.402344 116.679688 " fill-opacity="1" fill-rule="nonzero"/><path fill="#ff8210" d="M 231.238281 162.078125 C 230.269531 160.390625 229.183594 158.578125 228.097656 156.886719 C 206.363281 173.550781 163.253906 196.128906 112.058594 216.535156 C 81.386719 228.734375 52.527344 238.390625 28.5 244.792969 C 29.828125 250.105469 31.519531 255.296875 33.691406 260.367188 C 58.808594 252.640625 90.082031 240.324219 123.410156 224.628906 C 170.015625 202.890625 209.382812 179.585938 231.238281 162.078125 Z M 231.238281 162.078125 " fill-opacity="1" fill-rule="nonzero"/><path fill="#ff8210" d="M 153.835938 108.707031 C 150.457031 108.105469 147.195312 107.742188 143.816406 107.5 C 120.027344 122.351562 84.769531 139.742188 44.558594 155.800781 C 44.4375 155.800781 44.316406 155.921875 44.078125 155.921875 C 40.210938 161.597656 36.953125 167.511719 34.296875 173.671875 C 41.421875 170.53125 48.542969 167.273438 55.910156 163.890625 C 96.121094 145.054688 131.015625 125.128906 153.835938 108.707031 Z M 153.835938 108.707031 " fill-opacity="1" fill-rule="nonzero"/><path fill="#ff8210" d="M 201.171875 128.632812 C 199.480469 127.425781 197.789062 126.21875 196.097656 125.128906 C 174.96875 141.914062 130.894531 165.21875 78.25 186.230469 C 59.894531 193.59375 42.265625 199.875 25.84375 205.1875 C 25.238281 210.621094 25 216.054688 25.238281 221.367188 C 44.800781 214.121094 66.777344 204.945312 89.597656 194.320312 C 138.984375 171.257812 180.160156 146.503906 201.171875 128.632812 Z M 201.171875 128.632812 " fill-opacity="1" fill-rule="nonzero"/><path fill="#ff8210" d="M 240.777344 182.96875 C 240.050781 180.917969 239.328125 178.863281 238.601562 176.8125 C 215.417969 192.871094 175.570312 213.15625 129.082031 231.75 C 93.703125 245.878906 60.621094 256.503906 34.777344 262.664062 C 37.074219 267.855469 39.851562 273.046875 42.988281 277.878906 C 69.191406 270.390625 103.605469 257.230469 140.3125 239.839844 C 181.972656 220.402344 217.953125 199.753906 240.777344 182.96875 Z M 240.777344 182.96875 " fill-opacity="1" fill-rule="nonzero"/><path fill="#ff8210" d="M 142.488281 328.230469 C 162.289062 320.984375 184.628906 311.6875 207.8125 300.820312 C 208.535156 300.457031 209.382812 300.09375 210.105469 299.734375 C 212.761719 297.316406 215.417969 294.660156 217.953125 291.882812 C 221.457031 287.898438 224.714844 283.792969 227.492188 279.566406 C 217.59375 284.035156 207.207031 288.382812 196.460938 292.609375 C 161.324219 306.613281 128.480469 317.242188 102.761719 323.398438 C 115.679688 327.503906 129.203125 329.074219 142.488281 328.230469 Z M 142.488281 328.230469 " fill-opacity="1" fill-rule="nonzero"/><g clip-path="url(#b600df111a)"><path fill="#ff8210" d="M 157.582031 326.296875 C 152.75 328.230469 149.371094 329.796875 148.886719 330.402344 L 162.289062 325.332031 C 172.671875 323.035156 182.816406 319.292969 192.355469 313.980469 L 219.28125 303.839844 C 219.28125 303.839844 208.535156 307.582031 195.496094 312.167969 C 182.453125 317 167 322.554688 157.582031 326.296875 Z M 157.582031 326.296875 " fill-opacity="1" fill-rule="nonzero"/></g><g clip-path="url(#6cbeb8a99f)"><path fill="#fffef9" d="M 273.378906 146.863281 C 273.5 145.054688 274.34375 135.636719 273.015625 130.804688 C 272.292969 128.269531 271.324219 124.40625 270.601562 121.023438 C 270.359375 118.609375 269.996094 115.589844 269.632812 112.691406 C 269.152344 108.707031 268.546875 103.878906 268.546875 102.792969 C 268.546875 102.308594 268.667969 101.707031 268.910156 101.101562 C 269.152344 100.136719 269.394531 99.046875 269.394531 97.960938 C 269.394531 96.632812 268.789062 94.941406 267.945312 92.648438 C 267.703125 92.167969 267.582031 91.804688 267.582031 91.5625 C 266.738281 88.179688 261.421875 86.007812 261.421875 85.886719 C 260.820312 85.644531 260.09375 85.402344 259.613281 85.402344 C 259.007812 85.042969 258.40625 84.800781 257.679688 84.679688 C 256.957031 84.558594 256.351562 84.558594 255.75 84.800781 C 255.265625 84.679688 254.660156 84.800781 254.058594 84.921875 C 253.9375 84.921875 253.9375 84.800781 253.816406 84.800781 C 252.851562 84.4375 251.644531 84.316406 250.316406 85.042969 C 249.347656 84.679688 248.261719 84.679688 247.175781 85.042969 C 245.605469 85.644531 244.640625 86.972656 244.519531 88.542969 C 244.398438 89.027344 244.035156 90.71875 243.792969 92.167969 C 242.707031 92.046875 241.742188 91.925781 240.898438 91.925781 C 241.015625 91.804688 241.136719 91.5625 241.378906 91.441406 C 241.984375 90.597656 242.464844 89.390625 243.191406 87.820312 C 243.3125 87.578125 243.3125 87.335938 243.433594 87.214844 C 244.882812 85.285156 245.847656 83.351562 246.089844 81.539062 C 246.210938 81.179688 246.210938 80.816406 246.210938 80.574219 C 246.933594 80.332031 247.777344 79.96875 248.503906 79.246094 C 249.347656 78.28125 249.832031 76.953125 249.589844 75.625 C 249.46875 75.140625 249.46875 74.65625 249.347656 74.175781 C 249.226562 73.8125 249.226562 73.449219 249.226562 73.207031 C 249.105469 72.363281 248.988281 71.519531 248.867188 70.671875 C 248.988281 70.429688 249.109375 70.191406 249.226562 69.828125 C 249.589844 68.742188 249.832031 66.929688 249.832031 66.085938 C 249.832031 65.964844 249.710938 57.875 248.746094 55.578125 C 247.777344 53.40625 244.277344 49.542969 241.378906 47.972656 C 237.878906 46.160156 234.859375 45.195312 232.082031 45.074219 C 231.476562 45.074219 230.875 45.074219 230.269531 44.953125 C 228.097656 44.832031 225.320312 44.589844 222.421875 45.4375 C 219.160156 46.402344 215.902344 48.457031 213.96875 50.75 C 212.277344 52.679688 211.554688 55.335938 210.710938 58.113281 L 210.226562 59.804688 C 209.382812 62.582031 208.535156 65.238281 209.742188 67.894531 C 209.984375 68.621094 210.105469 70.671875 210.226562 74.296875 L 210.226562 75.382812 C 210.347656 77.554688 209.863281 79.246094 209.5 79.730469 C 209.382812 79.851562 209.261719 79.96875 209.140625 80.089844 C 208.171875 79.609375 206.605469 79.246094 204.429688 79.609375 C 203.222656 79.851562 202.257812 80.210938 201.410156 80.453125 C 200.929688 80.574219 200.445312 80.816406 200.082031 80.816406 C 199.84375 80.695312 199.601562 80.574219 199.359375 80.453125 C 198.753906 80.089844 197.789062 79.609375 196.582031 79.730469 C 196.097656 79.730469 194.648438 79.488281 194.410156 79.488281 C 194.289062 79.488281 194.167969 79.367188 194.046875 79.367188 C 192.597656 78.640625 188.976562 76.832031 184.386719 76.953125 C 180.882812 77.074219 178.226562 78.039062 176.539062 78.640625 C 176.296875 78.761719 176.175781 78.761719 176.054688 78.882812 C 175.933594 78.882812 175.691406 78.882812 175.449219 78.882812 C 164.703125 78.402344 159.027344 78.640625 156.492188 79.488281 C 152.628906 80.816406 148.523438 84.679688 145.144531 88.300781 C 143.574219 89.871094 140.554688 94.097656 136.570312 100.015625 C 134.757812 102.550781 133.066406 105.085938 132.101562 106.292969 C 130.773438 108.105469 129.324219 110.398438 128.117188 112.332031 C 127.152344 113.902344 125.824219 115.953125 125.339844 116.558594 C 123.648438 118.246094 123.046875 119.816406 122.5625 121.023438 C 122.441406 121.265625 122.320312 121.628906 122.199219 121.871094 C 121.597656 123.078125 116.527344 132.617188 115.679688 134.066406 C 114.714844 135.757812 113.023438 141.550781 112.179688 145.054688 C 111.695312 146.261719 111.09375 147.710938 110.851562 148.191406 C 109.28125 151.089844 110.125 152.902344 110.972656 153.867188 C 110.972656 154.714844 111.214844 155.558594 111.695312 156.285156 C 112.179688 157.007812 113.265625 158.214844 115.558594 158.457031 C 117.25 158.578125 119.304688 157.25 120.269531 155.800781 C 121.234375 154.472656 121.960938 153.023438 122.441406 151.574219 C 123.046875 149.523438 123.648438 148.3125 123.890625 147.710938 C 126.304688 150.003906 128.359375 150.125 129.566406 149.761719 C 131.136719 149.28125 132.34375 148.074219 132.707031 146.261719 C 132.949219 145.175781 134.398438 142.277344 134.878906 141.3125 C 135.121094 140.828125 135.363281 140.464844 135.363281 140.34375 L 135.484375 140.101562 C 136.085938 139.136719 137.292969 136.84375 137.535156 133.21875 C 137.65625 131.167969 137.65625 129.960938 137.65625 129.113281 C 137.65625 128.632812 137.65625 128.148438 137.65625 127.667969 C 138.140625 126.097656 141.398438 120.300781 144.660156 117.644531 C 148.765625 114.382812 154.441406 107.5 157.460938 103.878906 L 158.425781 102.792969 C 159.632812 101.34375 160.960938 100.015625 161.925781 99.046875 C 162.652344 99.289062 163.617188 99.652344 164.824219 99.894531 C 165.910156 100.136719 168.085938 101.222656 169.898438 102.066406 C 173.035156 103.636719 174.847656 104.480469 176.417969 104.480469 C 176.660156 104.480469 177.140625 104.601562 177.746094 104.84375 C 177.625 107.257812 177.382812 109.675781 177.503906 111.246094 C 177.503906 111.96875 177.019531 115.230469 176.539062 117.765625 C 175.691406 123.078125 174.726562 129.113281 174.847656 132.496094 C 174.96875 134.429688 175.210938 135.757812 175.449219 136.84375 C 175.8125 138.652344 175.8125 139.136719 174.96875 140.949219 C 174.003906 142.878906 173.277344 144.933594 172.675781 146.863281 C 172.191406 148.3125 171.464844 150.367188 170.984375 150.96875 C 169.535156 152.296875 164.101562 157.613281 160.359375 163.046875 C 156.253906 168.960938 154.683594 178.621094 154.683594 183.691406 C 154.683594 188.523438 155.042969 190.9375 156.253906 193.472656 C 156.734375 194.679688 157.941406 196.25 159.027344 197.578125 C 156.132812 200.113281 151.90625 204.339844 149.488281 208.566406 C 147.195312 212.550781 145.625 216.296875 144.539062 218.832031 C 144.175781 219.796875 143.695312 221.003906 143.453125 221.246094 C 142.847656 222.210938 138.503906 227.042969 134.15625 231.871094 C 131.136719 231.027344 125.824219 229.820312 121.476562 230.179688 C 116.765625 230.664062 113.507812 232.835938 111.453125 234.046875 C 111.09375 234.285156 110.730469 234.527344 110.488281 234.648438 C 108.675781 235.132812 99.015625 236.941406 95.878906 237.304688 C 95.757812 237.183594 95.757812 237.0625 95.636719 236.941406 L 95.273438 236.339844 C 94.066406 234.648438 92.253906 232.957031 90.925781 232.113281 L 90.566406 231.871094 C 89.476562 231.148438 87.304688 229.820312 84.285156 230.300781 C 81.386719 230.785156 78.25 232.71875 76.679688 235.132812 C 75.953125 236.21875 75.59375 237.304688 75.230469 238.390625 C 74.746094 239.601562 74.382812 240.6875 73.660156 241.53125 C 71.847656 243.464844 65.085938 248.414062 64 249.019531 C 61.828125 249.863281 58.082031 253.003906 57.480469 259.039062 C 57.359375 259.765625 57.359375 260.367188 57.238281 260.972656 C 56.875 264.472656 56.632812 267.25 58.566406 269.667969 C 60.257812 271.839844 63.398438 273.289062 66.054688 273.289062 C 67.863281 273.167969 69.433594 272.445312 70.398438 270.996094 C 72.210938 268.21875 73.78125 266.164062 75.109375 264.59375 C 75.230469 264.59375 75.230469 264.59375 75.351562 264.472656 C 75.832031 264.351562 76.316406 263.992188 76.679688 263.628906 C 76.800781 263.507812 76.921875 263.386719 77.160156 263.265625 C 77.886719 263.265625 78.730469 263.144531 79.335938 262.785156 C 79.457031 262.785156 79.699219 262.664062 79.820312 262.664062 C 79.9375 262.664062 80.058594 262.542969 80.179688 262.542969 C 80.542969 262.421875 80.90625 262.421875 81.148438 262.179688 C 81.992188 262.179688 82.714844 262.179688 83.320312 262.058594 C 84.890625 263.023438 86.582031 263.386719 88.148438 262.90625 C 90.566406 262.058594 92.253906 260.128906 92.496094 257.710938 C 96.121094 257.109375 102.277344 256.382812 105.777344 256.261719 C 110.609375 256.140625 129.6875 258.679688 135.964844 259.644531 C 140.796875 260.367188 146.351562 261.214844 150.214844 256.261719 C 150.699219 255.660156 151.300781 254.933594 151.90625 254.089844 C 153.355469 252.277344 155.648438 249.261719 156.492188 248.65625 C 157.699219 247.929688 164.101562 244.308594 165.429688 243.34375 C 166.636719 242.496094 177.988281 232.71875 183.78125 227.164062 C 187.40625 223.660156 190.304688 220.402344 191.992188 218.347656 C 193.804688 219.195312 196.339844 220.28125 198.394531 221.246094 C 199.84375 221.96875 201.050781 222.574219 201.894531 223.179688 C 201.410156 224.867188 200.6875 227.40625 199.480469 230.664062 C 196.824219 237.789062 196.703125 239.839844 197.066406 245.515625 C 197.304688 248.65625 198.632812 256.382812 200.082031 264.59375 C 201.171875 270.632812 202.257812 276.789062 202.738281 280.773438 C 204.066406 290.074219 203.464844 294.179688 203.101562 295.023438 C 202.980469 295.386719 202.738281 295.746094 202.257812 296.351562 C 201.652344 297.195312 200.808594 298.285156 200.203125 299.851562 C 200.082031 300.09375 199.960938 300.335938 199.84375 300.578125 C 199.117188 302.390625 198.753906 303.355469 198.515625 307.824219 C 198.394531 309.390625 198.273438 310.480469 198.273438 311.324219 C 198.152344 313.136719 197.910156 314.707031 198.753906 316.15625 C 198.875 316.515625 198.996094 316.878906 199.238281 317.121094 C 199.722656 318.570312 201.050781 319.535156 202.980469 319.898438 C 203.34375 320.019531 203.828125 320.019531 204.429688 320.140625 C 209.382812 321.105469 212.277344 321.828125 213.003906 322.3125 C 216.023438 324.363281 219.402344 326.417969 221.816406 327.261719 C 223.871094 327.867188 234.132812 329.074219 238.84375 329.074219 C 239.6875 329.074219 240.414062 329.074219 240.777344 328.953125 C 242.828125 328.46875 248.988281 326.175781 250.917969 322.3125 C 252.730469 318.691406 252.367188 314.585938 250.195312 312.289062 C 248.746094 310.839844 246.449219 310.480469 242.949219 310.117188 C 242.464844 310.117188 241.984375 309.996094 241.5 309.996094 C 240.898438 309.511719 240.171875 309.03125 239.449219 308.667969 C 239.328125 308.425781 239.085938 308.183594 238.964844 307.945312 C 238.359375 307.21875 237.636719 306.613281 236.671875 306.253906 C 236.429688 306.011719 236.1875 305.769531 235.945312 305.527344 L 235.703125 305.285156 C 235.34375 304.925781 234.738281 304.5625 234.132812 304.199219 C 234.132812 304.199219 234.015625 304.199219 234.015625 304.078125 C 233.773438 303.839844 233.53125 303.476562 233.289062 303.113281 C 233.410156 302.511719 233.410156 302.027344 233.410156 301.542969 C 233.410156 301.421875 233.53125 301.300781 233.53125 301.179688 C 234.496094 298.042969 232.804688 294.539062 228.941406 291.761719 C 227.734375 290.917969 226.527344 290.3125 225.199219 290.195312 C 224.714844 286.8125 223.871094 280.535156 223.992188 273.890625 C 224.113281 263.023438 225.683594 236.582031 226.890625 231.027344 C 227.492188 228.007812 228.820312 224.507812 229.910156 221.488281 C 231.117188 217.984375 231.839844 216.054688 232.082031 214.484375 C 232.445312 210.5 230.996094 206.515625 227.855469 202.890625 C 224.835938 199.511719 214.816406 189.367188 214.453125 188.886719 L 214.089844 188.523438 L 213.605469 188.28125 C 213.003906 187.917969 212.277344 187.316406 211.917969 186.953125 C 212.160156 184.417969 214.9375 173.792969 217.109375 170.652344 C 220.128906 166.304688 231.117188 144.933594 233.894531 139.136719 C 234.496094 137.929688 235.101562 136.480469 235.824219 134.910156 C 236.671875 133.21875 237.636719 131.046875 238.601562 129.113281 C 239.207031 131.046875 239.929688 132.980469 241.136719 134.550781 C 243.3125 137.566406 245.484375 141.070312 246.089844 142.035156 C 246.8125 144.328125 249.347656 151.816406 251.160156 154.472656 C 251.523438 154.957031 251.765625 155.4375 252.003906 155.800781 C 253.09375 157.851562 254.058594 158.941406 257.316406 160.390625 C 258.285156 160.871094 259.128906 161.355469 259.855469 161.71875 C 261.664062 162.804688 265.167969 164.734375 268.066406 161.597656 C 269.152344 160.390625 269.632812 159.421875 269.996094 158.820312 C 269.996094 158.699219 270.117188 158.699219 270.117188 158.578125 C 270.117188 158.578125 270.117188 158.578125 270.238281 158.578125 C 271.203125 157.972656 273.5 156.644531 273.859375 153.265625 C 273.980469 151.816406 273.980469 150.609375 273.859375 149.523438 C 273.257812 148.917969 273.257812 148.074219 273.378906 146.863281 Z M 273.378906 146.863281 " fill-opacity="1" fill-rule="nonzero"/></g><path fill="#ffffff" d="M 269.753906 146.625 C 269.996094 143.847656 270.480469 135.636719 269.515625 131.773438 C 268.910156 129.597656 267.824219 125.371094 267.097656 121.75 C 266.375 115.351562 264.925781 103.878906 264.925781 102.792969 C 265.046875 101.101562 265.648438 99.410156 265.648438 98.203125 C 265.648438 96.875 264.082031 93.375 263.839844 92.648438 C 263.597656 91.804688 261.304688 90.113281 259.734375 89.507812 C 258.164062 88.90625 258.285156 89.507812 258.285156 89.507812 C 258.285156 89.507812 257.316406 88.542969 256.714844 88.421875 C 256.109375 88.300781 255.628906 88.90625 255.628906 88.90625 C 255.628906 88.90625 255.023438 88.300781 254.421875 88.664062 C 253.816406 89.027344 253.574219 89.269531 253.574219 89.269531 C 253.574219 89.269531 252.851562 88.664062 252.367188 88.421875 C 251.765625 88.179688 251.523438 88.542969 251.160156 89.027344 C 250.796875 89.390625 250.4375 92.40625 250.4375 92.40625 C 250.4375 92.40625 250.074219 90.957031 250.074219 90.835938 C 250.074219 90.597656 249.46875 89.507812 249.109375 89.027344 C 248.625 88.542969 248.019531 88.90625 248.019531 89.269531 C 248.019531 89.628906 247.175781 93.613281 247.175781 93.613281 C 247.175781 93.613281 247.660156 96.875 249.109375 99.53125 C 250.554688 102.1875 256.351562 105.691406 256.351562 105.691406 C 256.351562 105.691406 256.835938 108.347656 256.835938 113.296875 C 256.835938 113.660156 256.957031 119.214844 256.957031 122.113281 C 256.351562 121.75 255.265625 120.542969 255.023438 119.574219 C 254.78125 118.609375 254.660156 114.625 253.332031 110.519531 C 251.882812 106.535156 249.226562 99.167969 247.175781 97.601562 C 245.121094 95.910156 241.257812 95.910156 239.808594 95.910156 C 238.238281 95.789062 235.824219 94.941406 234.496094 94.941406 C 233.046875 94.941406 231.960938 94.703125 231.839844 94.339844 C 231.597656 93.976562 231.960938 93.496094 231.71875 91.5625 C 231.476562 89.75 231.359375 89.148438 231.839844 89.148438 C 232.324219 89.027344 232.203125 88.785156 234.375 89.269531 C 236.550781 89.75 237.878906 90.476562 238.480469 89.628906 C 239.085938 88.785156 240.050781 85.886719 240.292969 85.644531 C 240.535156 85.285156 242.105469 83.351562 242.464844 81.417969 C 242.828125 79.367188 242.585938 79.367188 242.949219 78.882812 C 243.191406 78.640625 243.433594 78.039062 243.671875 77.675781 C 244.761719 77.675781 246.089844 77.675781 245.96875 76.46875 C 245.847656 75.625 245.605469 74.777344 245.484375 73.933594 C 245.363281 73.085938 245.242188 72.121094 245.003906 71.277344 C 245.003906 71.035156 245.003906 70.914062 245.003906 70.792969 C 245.003906 70.3125 245.363281 69.585938 245.605469 68.980469 C 245.847656 68.257812 246.089844 66.929688 246.089844 66.445312 C 246.089844 66.085938 245.847656 58.71875 245.363281 57.390625 C 244.761719 56.0625 241.984375 52.800781 239.6875 51.59375 C 237.394531 50.386719 234.617188 49.179688 231.960938 49.179688 C 229.304688 49.058594 226.285156 48.574219 223.386719 49.421875 C 220.371094 50.265625 217.953125 52.078125 216.625 53.648438 C 215.296875 55.21875 214.695312 57.632812 213.847656 60.410156 C 213.003906 63.1875 212.160156 65.359375 212.882812 67.050781 C 213.609375 68.742188 213.609375 74.054688 213.609375 75.746094 C 213.726562 77.433594 213.488281 80.574219 212.277344 82.265625 C 210.949219 83.957031 210.46875 84.679688 209.261719 84.558594 C 208.054688 84.4375 207.449219 83.109375 205.035156 83.714844 C 202.5 84.195312 200.6875 85.285156 199.359375 85.042969 C 198.03125 84.679688 197.066406 83.957031 196.703125 84.074219 C 196.339844 84.195312 193.683594 83.835938 192.839844 83.472656 C 191.992188 83.109375 188.734375 81.058594 184.386719 81.179688 C 180.039062 81.296875 177.261719 83.109375 176.296875 83.109375 C 175.449219 83.109375 161.082031 82.265625 157.582031 83.472656 C 154.078125 84.679688 149.851562 89.027344 147.558594 91.441406 C 145.265625 93.855469 137.292969 105.691406 134.757812 109.070312 C 132.222656 112.453125 129.324219 118.007812 127.753906 119.695312 C 126.1875 121.386719 125.824219 122.835938 125.21875 124.164062 C 124.617188 125.492188 119.421875 135.03125 118.578125 136.601562 C 117.734375 138.050781 115.4375 146.863281 115.4375 146.863281 C 115.4375 146.863281 114.351562 149.761719 113.871094 150.609375 C 113.386719 151.453125 113.265625 151.9375 113.628906 152.179688 C 113.988281 152.417969 114.957031 152.296875 114.957031 152.296875 C 114.957031 152.296875 114.957031 152.417969 114.957031 152.539062 C 114.59375 153.628906 113.75 155.4375 115.800781 155.558594 C 115.921875 155.558594 117.007812 155.074219 117.25 154.472656 C 117.855469 153.628906 118.578125 152.417969 118.941406 151.332031 C 119.542969 149.28125 120.632812 146.382812 121.839844 145.296875 C 123.167969 144.085938 127.273438 140.222656 127.273438 140.222656 C 127.273438 140.222656 126.546875 142.15625 126.1875 143.363281 C 125.945312 144.570312 125.460938 145.054688 126.1875 145.777344 C 126.910156 146.503906 128.722656 147.953125 129.203125 146.140625 C 129.6875 144.328125 131.859375 140.222656 132.101562 139.621094 C 132.34375 139.015625 133.671875 137.207031 133.914062 133.945312 C 134.15625 130.683594 133.914062 129.597656 134.035156 128.148438 C 134.15625 126.699219 138.019531 119.335938 142.367188 115.832031 C 146.59375 112.453125 152.992188 104.601562 155.648438 101.464844 C 158.183594 98.324219 161.203125 95.789062 161.203125 95.789062 C 161.203125 95.789062 162.53125 96.632812 165.550781 97.480469 C 168.6875 98.324219 174.605469 101.945312 176.417969 102.066406 C 178.226562 102.1875 181.367188 103.757812 181.367188 104 C 181.367188 104.601562 180.882812 109.917969 181.003906 112.332031 C 181.125 114.746094 178.226562 128.390625 178.46875 133.582031 C 178.710938 138.652344 180.28125 139.5 178.226562 143.847656 C 176.175781 148.195312 174.847656 153.507812 173.519531 154.835938 C 172.070312 156.164062 166.878906 161.355469 163.253906 166.425781 C 159.632812 171.496094 158.304688 180.3125 158.304688 185.023438 C 158.304688 189.609375 158.667969 191.421875 159.632812 193.351562 C 160.476562 195.285156 164.101562 199.511719 164.101562 199.511719 C 164.101562 199.511719 156.011719 205.910156 152.75 211.828125 C 149.371094 217.746094 147.679688 223.058594 146.710938 224.628906 C 145.867188 226.195312 135.484375 237.425781 135.484375 237.425781 C 135.484375 237.425781 127.394531 234.769531 122.082031 235.253906 C 116.765625 235.734375 113.507812 239.117188 111.9375 239.601562 C 110.367188 240.082031 96.359375 242.617188 95.152344 242.496094 C 93.824219 242.257812 93.34375 241.050781 92.496094 239.960938 C 91.773438 238.753906 90.203125 237.425781 89.238281 236.824219 C 88.269531 236.21875 87.0625 235.253906 85.253906 235.496094 C 83.441406 235.855469 81.148438 237.183594 79.9375 238.875 C 78.730469 240.566406 78.609375 243.34375 76.4375 245.636719 C 74.265625 247.929688 66.777344 253.484375 65.449219 253.96875 C 64.121094 254.453125 61.585938 256.625 61.222656 260.972656 C 60.859375 265.320312 60.378906 267.492188 61.585938 269.183594 C 62.914062 270.875 66.414062 272.203125 67.503906 270.753906 C 68.226562 269.667969 71.003906 265.441406 73.296875 263.023438 C 73.539062 263.144531 73.78125 263.144531 73.902344 262.902344 C 74.023438 262.902344 74.144531 262.902344 74.265625 262.785156 C 74.503906 262.542969 74.867188 262.179688 75.109375 261.9375 C 75.230469 261.9375 75.472656 261.816406 75.59375 261.695312 C 75.59375 261.695312 75.710938 261.695312 75.710938 261.695312 C 76.074219 261.574219 76.074219 261.335938 76.074219 261.09375 C 76.316406 260.972656 76.4375 260.972656 76.679688 260.851562 C 76.679688 260.972656 76.800781 260.972656 76.800781 261.09375 C 76.921875 261.574219 77.644531 261.574219 77.886719 261.214844 C 78.25 261.214844 78.609375 261.09375 78.851562 260.972656 C 78.972656 260.972656 79.09375 260.851562 79.214844 260.730469 C 79.335938 260.851562 79.578125 260.851562 79.699219 260.730469 C 79.9375 260.609375 80.058594 260.367188 79.9375 260.128906 C 80.179688 260.128906 80.421875 260.007812 80.664062 260.007812 C 80.785156 260.246094 80.90625 260.246094 81.148438 260.367188 C 81.75 260.488281 82.355469 260.367188 82.957031 260.246094 C 83.078125 260.246094 83.199219 260.125 83.320312 260.007812 C 83.804688 260.125 84.164062 260.246094 84.648438 260.246094 C 85.253906 260.851562 86.21875 261.574219 87.0625 261.214844 C 88.027344 260.851562 88.875 260.007812 88.996094 258.917969 C 88.996094 258.074219 88.753906 257.351562 88.269531 256.746094 C 88.269531 256.746094 88.390625 256.625 88.511719 256.625 C 88.996094 256.382812 100.226562 254.691406 105.660156 254.574219 C 111.214844 254.453125 131.378906 257.230469 136.449219 258.074219 C 141.519531 258.796875 144.902344 259.039062 147.316406 256.019531 C 149.730469 253.003906 152.871094 248.65625 154.5625 247.570312 C 156.371094 246.601562 162.046875 243.222656 163.132812 242.496094 C 164.101562 241.773438 175.449219 232.113281 181.125 226.679688 C 186.921875 221.125 190.785156 216.054688 190.785156 216.054688 C 190.785156 216.054688 195.859375 218.347656 199.722656 220.160156 C 203.585938 221.96875 205.878906 223.78125 205.878906 223.78125 C 205.878906 223.78125 205.15625 227.644531 202.738281 234.164062 C 200.324219 240.6875 200.203125 242.257812 200.566406 247.449219 C 200.929688 252.640625 204.914062 273.289062 206.242188 282.464844 C 207.570312 291.640625 207.085938 296.714844 206.484375 298.523438 C 205.757812 300.335938 204.429688 301.179688 203.585938 303.355469 C 202.738281 305.40625 202.5 305.285156 202.257812 310.238281 C 202.015625 314.824219 201.53125 316.035156 202.136719 316.878906 C 202.257812 317.242188 202.378906 317.601562 202.621094 317.964844 C 202.621094 318.207031 202.859375 318.449219 203.828125 318.691406 C 205.636719 319.050781 213.125 320.378906 215.054688 321.585938 C 216.988281 322.917969 220.730469 325.332031 223.027344 326.054688 C 225.320312 326.78125 238.359375 327.988281 240.171875 327.625 C 241.984375 327.261719 246.691406 325.210938 247.78125 322.917969 C 248.867188 320.621094 248.746094 318.085938 247.660156 317 C 246.691406 316.035156 241.984375 315.914062 239.6875 315.429688 C 239.328125 314.707031 238.480469 314.222656 237.636719 313.980469 C 237.394531 313.980469 237.273438 313.980469 237.03125 314.101562 C 236.792969 313.859375 236.550781 313.617188 236.429688 313.375 C 236.550781 313.257812 236.550781 313.136719 236.550781 312.894531 C 236.550781 312.773438 236.550781 312.53125 236.429688 312.410156 C 236.429688 312.410156 236.429688 312.410156 236.308594 312.410156 C 236.066406 312.046875 235.703125 311.6875 235.101562 311.566406 C 234.859375 311.445312 234.738281 311.566406 234.496094 311.6875 C 234.375 311.566406 234.253906 311.566406 234.253906 311.445312 C 234.253906 311.324219 234.253906 311.324219 234.132812 311.203125 C 234.015625 311.082031 233.894531 310.960938 233.773438 310.839844 C 233.773438 310.601562 233.773438 310.359375 233.652344 310.238281 C 233.289062 309.875 232.925781 309.511719 232.445312 309.273438 C 232.203125 309.152344 231.839844 309.273438 231.71875 309.511719 C 231.238281 309.152344 230.996094 308.910156 230.996094 308.910156 C 230.996094 308.910156 230.996094 308.910156 230.996094 308.789062 C 231.238281 308.667969 231.359375 308.425781 231.117188 308.0625 C 230.753906 307.582031 230.390625 306.976562 229.910156 306.496094 C 229.789062 306.375 229.667969 306.375 229.546875 306.375 C 229.546875 306.375 229.546875 306.253906 229.546875 306.253906 C 229.0625 305.167969 230.632812 304.199219 229.546875 302.992188 C 229.789062 302.75 230.027344 302.507812 230.148438 302.027344 C 230.753906 299.972656 228.339844 297.679688 226.890625 296.59375 C 225.683594 295.625 223.992188 295.265625 222.664062 295.867188 C 222.300781 295.625 222.300781 295.507812 222.300781 295.507812 C 222.300781 295.507812 220.371094 286.207031 220.488281 275.703125 C 220.609375 265.199219 222.179688 238.152344 223.507812 232.113281 C 224.835938 226.074219 228.339844 218.46875 228.582031 215.933594 C 228.820312 213.398438 228.097656 210.378906 225.199219 207.117188 C 222.300781 203.738281 211.917969 193.230469 211.917969 193.230469 C 211.917969 193.230469 208.292969 191.300781 208.292969 189.007812 C 208.292969 186.710938 211.3125 174.394531 214.210938 170.289062 C 216.988281 166.183594 227.976562 144.933594 230.753906 139.257812 C 233.410156 133.582031 238 123.5625 238.601562 123.078125 C 239.207031 122.59375 240.898438 122.351562 240.898438 122.351562 C 240.898438 122.351562 241.257812 130.324219 244.035156 134.066406 C 246.8125 137.929688 249.347656 142.277344 249.347656 142.277344 C 249.347656 142.277344 252.246094 151.574219 254.058594 154.109375 C 255.871094 156.644531 254.902344 157.128906 258.648438 158.820312 C 262.390625 160.507812 263.839844 162.441406 265.289062 160.871094 C 266.738281 159.300781 266.738281 158.457031 267.460938 157.730469 C 268.1875 157.007812 269.875 156.886719 270.117188 154.59375 C 269.996094 150.96875 269.515625 149.402344 269.753906 146.625 Z M 269.753906 146.625 " fill-opacity="1" fill-rule="evenodd"/></svg>